<svg width="34" height="34" viewBox="0 0 34 34" version="1.1" xmlns="http://www.w3.org/2000/svg" xmlns:xlink="http://www.w3.org/1999/xlink">
<title>Behance logo</title>
<desc>Created using Figma</desc>
<g id="Canvas" transform="translate(-1934 137)">
<g id="Behance logo">
<g id="Ellipse">
<mask id="mask0_outline_ins">
<use xlink:href="#path0_fill" fill="white" transform="translate(1934 -137)"/>
</mask>
<g mask="url(#mask0_outline_ins)">
<use xlink:href="#path1_stroke_2x" transform="translate(1934 -137)" fill="#474747"/>
</g>
</g>
<g id="Vector">
<use xlink:href="#path2_fill" transform="translate(1942 -126)" fill="#474747"/>
</g>
</g>
</g>
<defs>
<path id="path0_fill" d="M 34 17C 34 26.3888 26.3888 34 17 34C 7.61116 34 0 26.3888 0 17C 0 7.61116 7.61116 0 17 0C 26.3888 0 34 7.61116 34 17Z"/>
<path id="path1_stroke_2x" d="M 31 17C 31 24.732 24.732 31 17 31L 17 37C 28.0457 37 37 28.0457 37 17L 31 17ZM 17 31C 9.26801 31 3 24.732 3 17L -3 17C -3 28.0457 5.95431 37 17 37L 17 31ZM 3 17C 3 9.26801 9.26801 3 17 3L 17 -3C 5.95431 -3 -3 5.95431 -3 17L 3 17ZM 17 3C 24.732 3 31 9.26801 31 17L 37 17C 37 5.95431 28.0457 -3 17 -3L 17 3Z"/>
<path id="path2_fill" d="M 7.65278 5.3769C 8.70174 4.87178 9.24931 4.10745 9.24931 2.91775C 9.24931 0.571587 7.51424 5.07077e-08 5.51198 5.07077e-08L 0 5.07077e-08L 0 11.7773L 5.66701 11.7773C 7.79132 11.7773 9.78698 10.7505 9.78698 8.3578C 9.78698 6.87898 9.09097 5.78565 7.65278 5.3769L 7.65278 5.3769ZM 2.56962 2.01052L 4.9809 2.01052C 5.90781 2.01052 6.74236 2.27305 6.74236 3.35641C 6.74236 4.35669 6.09253 4.75879 5.17552 4.75879L 2.56962 4.75879L 2.56962 2.01052L 2.56962 2.01052ZM 5.31736 9.77679L 2.56962 9.77679L 2.56962 6.53337L 5.37014 6.53337C 6.50156 6.53337 7.21736 7.00859 7.21736 8.2149C 7.21736 9.4046 6.36302 9.77679 5.31736 9.77679L 5.31736 9.77679ZM 17.1429 1.7779L 12.4028 1.7779L 12.4028 0.618111L 17.1429 0.618111L 17.1429 1.7779L 17.1429 1.7779ZM 19 7.63667C 19 5.11437 17.5354 3.0108 14.88 3.0108C 12.3005 3.0108 10.549 4.96483 10.549 7.52368C 10.549 10.1789 12.2082 12 14.88 12C 16.9021 12 18.2116 11.0828 18.8417 9.1321L 16.7899 9.1321C 16.5689 9.85987 15.6585 10.2454 14.9526 10.2454C 13.5903 10.2454 12.8745 9.44115 12.8745 8.07533L 18.9802 8.07533C 18.9901 7.93575 19 7.78621 19 7.63667ZM 12.8778 6.59983C 12.9536 5.47992 13.6925 4.77873 14.8075 4.77873C 15.9752 4.77873 16.5623 5.46995 16.6613 6.59983L 12.8778 6.59983Z"/>
</defs>
</svg>
