<svg width="34" height="34" viewBox="0 0 34 34" version="1.1" xmlns="http://www.w3.org/2000/svg" xmlns:xlink="http://www.w3.org/1999/xlink">
<title>Codepen logo</title>
<desc>Created using Figma</desc>
<g id="Canvas" transform="translate(-1934 209)">
<g id="Codepen logo">
<g id="Ellipse">
<mask id="mask0_outline_ins">
<use xlink:href="#path0_fill" fill="white" transform="translate(1934 -209)"/>
</mask>
<g mask="url(#mask0_outline_ins)">
<use xlink:href="#path1_stroke_2x" transform="translate(1934 -209)" fill="#474747"/>
</g>
</g>
<g id="Vector">
<use xlink:href="#path2_fill" transform="translate(1942 -202)" fill="#474747"/>
</g>
</g>
</g>
<defs>
<path id="path0_fill" d="M 34 17C 34 26.3888 26.3888 34 17 34C 7.61116 34 0 26.3888 0 17C 0 7.61116 7.61116 0 17 0C 26.3888 0 34 7.61116 34 17Z"/>
<path id="path1_stroke_2x" d="M 31 17C 31 24.732 24.732 31 17 31L 17 37C 28.0457 37 37 28.0457 37 17L 31 17ZM 17 31C 9.26801 31 3 24.732 3 17L -3 17C -3 28.0457 5.95431 37 17 37L 17 31ZM 3 17C 3 9.26801 9.26801 3 17 3L 17 -3C 5.95431 -3 -3 5.95431 -3 17L 3 17ZM 17 3C 24.732 3 31 9.26801 31 17L 37 17C 37 5.95431 28.0457 -3 17 -3L 17 3Z"/>
<path id="path2_fill" d="M 18.6394 5.9265L 9.95587 0.137422C 9.65948 -0.0449714 9.34316 -0.0466413 9.04406 0.137422L 0.36048 5.9265C 0.137824 6.0749 0 6.34001 0 6.60505L 0 12.3941C 0 12.6592 0.137824 12.9242 0.360517 13.0727L 9.04409 18.8626C 9.34049 19.045 9.65681 19.0466 9.95591 18.8626L 18.6395 13.0727C 18.8621 12.9243 19 12.6592 19 12.3941L 19 6.60505C 19 6.34001 18.8621 6.0749 18.6394 5.9265L 18.6394 5.9265ZM 10.3164 2.34273L 16.7098 6.60505L 13.8577 8.51356L 10.3164 6.14912L 10.3164 2.34273ZM 8.68358 2.34273L 8.68358 6.14912L 5.14227 8.51356L 2.29016 6.60505L 8.68358 2.34273ZM 1.63281 8.13185L 3.67913 9.49959L 1.63281 10.8673L 1.63281 8.13185ZM 8.68358 16.6565L 2.29016 12.3941L 5.14227 10.4856L 8.68358 12.8501L 8.68358 16.6565ZM 9.49998 11.4293L 6.61603 9.49959L 9.49998 7.5699L 12.3839 9.49959L 9.49998 11.4293ZM 10.3164 16.6565L 10.3164 12.8501L 13.8577 10.4856L 16.7098 12.3941L 10.3164 16.6565ZM 17.3672 10.8673L 15.3208 9.49959L 17.3672 8.13185L 17.3672 10.8673Z"/>
</defs>
</svg>
