<svg width="34" height="34" viewBox="0 0 34 34" version="1.1" xmlns="http://www.w3.org/2000/svg" xmlns:xlink="http://www.w3.org/1999/xlink">
<title>Group 5</title>
<desc>Created using Figma</desc>
<g id="Canvas" transform="translate(-1824 353)">
<g id="Group 5">
<g id="Ellipse">
<mask id="mask0_outline_ins">
<use xlink:href="#path0_fill" fill="white" transform="translate(1824 -353)"/>
</mask>
<g mask="url(#mask0_outline_ins)">
<use xlink:href="#path1_stroke_2x" transform="translate(1824 -353)" fill="#474747"/>
</g>
</g>
<g id="Vector">
<use xlink:href="#path2_fill" transform="translate(1832 -343)" fill="#474747"/>
</g>
</g>
</g>
<defs>
<path id="path0_fill" d="M 34 17C 34 26.3888 26.3888 34 17 34C 7.61116 34 0 26.3888 0 17C 0 7.61116 7.61116 0 17 0C 26.3888 0 34 7.61116 34 17Z"/>
<path id="path1_stroke_2x" d="M 31 17C 31 24.732 24.732 31 17 31L 17 37C 28.0457 37 37 28.0457 37 17L 31 17ZM 17 31C 9.26801 31 3 24.732 3 17L -3 17C -3 28.0457 5.95431 37 17 37L 17 31ZM 3 17C 3 9.26801 9.26801 3 17 3L 17 -3C 5.95431 -3 -3 5.95431 -3 17L 3 17ZM 17 3C 24.732 3 31 9.26801 31 17L 37 17C 37 5.95431 28.0457 -3 17 -3L 17 3Z"/>
<path id="path2_fill" d="M 15.2526 3.48905C 15.2634 3.64217 15.2634 3.79532 15.2634 3.94844C 15.2634 8.61873 11.7577 14 5.35027 14C 3.37627 14 1.54252 13.4203 0 12.4141C 0.280468 12.4469 0.550112 12.4578 0.841371 12.4578C 2.47016 12.4578 3.96955 11.9 5.16689 10.9485C 3.63516 10.9156 2.35152 9.89845 1.90925 8.49844C 2.12501 8.53123 2.34073 8.55311 2.56728 8.55311C 2.88008 8.55311 3.19292 8.50934 3.48415 8.43282C 1.8877 8.10467 0.690329 6.68281 0.690329 4.96562L 0.690329 4.92188C 1.15415 5.18439 1.69353 5.34845 2.26519 5.3703C 1.32674 4.73591 0.711911 3.65311 0.711911 2.4281C 0.711911 1.77186 0.884468 1.1703 1.18652 0.645296C 2.90163 2.78904 5.4797 4.18902 8.37054 4.34217C 8.31662 4.07967 8.28425 3.80626 8.28425 3.53282C 8.28425 1.58592 9.83756 2.46585e-08 11.7684 2.46585e-08C 12.7716 2.46585e-08 13.6776 0.426561 14.3141 1.11562C 15.1015 0.962507 15.8566 0.66718 16.5254 0.262502C 16.2665 1.08283 15.7164 1.7719 14.9937 2.20937C 15.6948 2.13284 16.3744 1.93592 17 1.66251C 16.5255 2.36248 15.9322 2.9859 15.2526 3.48905L 15.2526 3.48905Z"/>
</defs>
</svg>
