<svg width="34" height="34" viewBox="0 0 34 34" version="1.1" xmlns="http://www.w3.org/2000/svg" xmlns:xlink="http://www.w3.org/1999/xlink">
<title>Group 4</title>
<desc>Created using Figma</desc>
<g id="Canvas" transform="translate(-1934 353)">
<g id="Group 4">
<g id="Ellipse">
<mask id="mask0_outline_ins">
<use xlink:href="#path0_fill" fill="white" transform="translate(1934 -353)"/>
</mask>
<g mask="url(#mask0_outline_ins)">
<use xlink:href="#path1_stroke_2x" transform="translate(1934 -353)" fill="#474747"/>
</g>
</g>
<g id="Vector">
<use xlink:href="#path2_fill" transform="translate(1942 -343)" fill="#474747"/>
</g>
</g>
</g>
<defs>
<path id="path0_fill" d="M 34 17C 34 26.3888 26.3888 34 17 34C 7.61116 34 0 26.3888 0 17C 0 7.61116 7.61116 0 17 0C 26.3888 0 34 7.61116 34 17Z"/>
<path id="path1_stroke_2x" d="M 31 17C 31 24.732 24.732 31 17 31L 17 37C 28.0457 37 37 28.0457 37 17L 31 17ZM 17 31C 9.26801 31 3 24.732 3 17L -3 17C -3 28.0457 5.95431 37 17 37L 17 31ZM 3 17C 3 9.26801 9.26801 3 17 3L 17 -3C 5.95431 -3 -3 5.95431 -3 17L 3 17ZM 17 3C 24.732 3 31 9.26801 31 17L 37 17C 37 5.95431 28.0457 -3 17 -3L 17 3Z"/>
<path id="path2_fill" d="M 2.01385 2.85618C 2.03494 2.64096 1.9541 2.42574 1.79946 2.27983L 0.214389 0.295466L 0.214389 0L 5.14182 0L 8.95162 8.67066L 12.301 0L 17 0L 17 0.295466L 15.6434 1.64513C 15.5274 1.73632 15.4676 1.88953 15.4922 2.03908L 15.4922 11.9609C 15.4676 12.1105 15.5274 12.2637 15.6434 12.3549L 16.9684 13.7045L 16.9684 14L 10.3012 14L 10.3012 13.7045L 11.6754 12.322C 11.809 12.1834 11.809 12.1397 11.809 11.9281L 11.809 3.91037L 7.98863 13.9745L 7.47199 13.9745L 3.02956 3.91037L 3.02956 10.655C 2.9909 10.9396 3.08228 11.2241 3.27558 11.4283L 5.06099 13.6754L 5.06099 13.9708L -6.70352e-09 13.9708L -6.70352e-09 13.679L 1.7854 11.4283C 1.97519 11.2241 2.06306 10.9359 2.01385 10.655L 2.01385 2.85618Z"/>
</defs>
</svg>
